# xmcd
#
# Track frame offsets:
#	150
#	11900
#	25832
#	34702
#	48617
#	60705
#	72815
#	85535
#	97637
#	108287
#	119190
#	132465
#	144047
#	158817
#	176042
#
# Disc length: 2542 seconds
#
# Revision: 1
# Processed by: cddbd v1.5.1PL0 Copyright (c) Steve Scherf et al.
# Submitted via: dBpowerAMP V4.0
#
DISCID=c309ec0f
DTITLE=Dolly Parton - The Ultimate Collection
DYEAR=1998
DGENRE=Country
TTITLE0=The Last Thing On My Mind
TTITLE1=Just Because I'm A Woman
TTITLE2=We'll Get Ahead Someday
TTITLE3=Coat Of Many Colours
TTITLE4=Touch Your Woman
TTITLE5=Jolene
TTITLE6=Please Don't Stop Loving Me
TTITLE7=The Bargain Store
TTITLE8=Love Is Like A Butterfly
TTITLE9=All I Can Do
TTITLE10=Here You Come Again
TTITLE11=Baby I'm Burnin'
TTITLE12=It's All wrong, But It's All Right
TTITLE13=Great Balls Of Fire
TTITLE14=You're The Only One
EXTD=
EXTT0=
EXTT1=
EXTT2=
EXTT3=
EXTT4=
EXTT5=
EXTT6=
EXTT7=
EXTT8=
EXTT9=
EXTT10=
EXTT11=
EXTT12=
EXTT13=
EXTT14=
PLAYORDER=
